<svg width="98" height="100" viewBox="0 0 98 100" fill="none" xmlns="http://www.w3.org/2000/svg">
<g clip-path="url(#clip0_294_14)" filter="url(#filter0_d_294_14)">
<g opacity="0.1">
<g opacity="0.1">
<path opacity="0.1" d="M10 47.4296H48.6731V8.84668C27.3157 8.84668 10 26.122 10 47.4296Z" fill="#1E1E1E"/>
<path opacity="0.1" d="M87.3333 47.4296C87.3333 26.122 70.0175 8.84668 48.6602 8.84668V47.4296H87.3333Z" fill="#1E1E1E"/>
<path opacity="0.1" d="M10 47.4297C10 68.7244 27.3157 85.9997 48.6731 85.9997V47.4297H10Z" fill="#1E1E1E"/>
<path opacity="0.1" d="M48.6731 85.9999C70.0305 85.9999 87.3462 68.7246 87.3462 47.417H48.6731V85.9999Z" fill="#1E1E1E"/>
</g>
</g>
<path d="M10 44.5829H48.6731V6C27.3157 6 10 23.2754 10 44.5829Z" fill="#F37920"/>
<path d="M87.3333 44.5829C87.3333 23.2754 70.0176 6 48.6731 6V44.5829H87.3333Z" fill="#3CBDB2"/>
<path d="M10 44.583C10 65.8906 27.3157 83.1659 48.6731 83.1659V44.583H10Z" fill="#FFC624"/>
<path d="M48.6731 83.1532C70.0305 83.1532 87.3462 65.8779 87.3462 44.5703H48.6731V83.1532Z" fill="#9ECD43"/>
<path d="M49.85 25.8249C49.5098 25.5164 49.1232 25.3467 48.6748 25.3467C48.18 25.3467 47.778 25.5009 47.4532 25.8249C47.144 26.1334 46.9739 26.55 46.9739 27.0436C46.9739 27.5373 47.1285 27.9384 47.4532 28.2624C47.7625 28.5709 48.18 28.7406 48.6748 28.7406C49.1232 28.7406 49.5253 28.5863 49.85 28.2778C50.1902 27.9692 50.3603 27.5527 50.3603 27.0591C50.3603 26.55 50.1902 26.1334 49.85 25.8249Z" fill="white"/>
<path d="M48.6748 63.806C48.18 63.806 47.778 63.6518 47.4532 63.3278C47.144 63.0193 46.9739 62.6027 46.9739 62.1091C46.9739 61.6154 47.1285 61.2143 47.4532 60.8903C47.7625 60.5818 48.18 60.4121 48.6748 60.4121C49.1232 60.4121 49.5253 60.5664 49.85 60.8903C50.1902 61.2143 50.3603 61.6154 50.3603 62.1091C50.3603 62.6027 50.1902 63.0038 49.85 63.3278C49.5098 63.6363 49.1232 63.806 48.6748 63.806ZM48.6748 60.8903C48.3037 60.8903 48.0254 60.9983 47.7934 61.2297C47.5615 61.4611 47.4532 61.7388 47.4532 62.1091C47.4532 62.4793 47.5615 62.757 47.7934 62.9884C48.0254 63.2198 48.3037 63.3278 48.6748 63.3278C48.9995 63.3278 49.2779 63.2198 49.5407 62.9884C49.7881 62.757 49.8964 62.4793 49.8964 62.1091C49.8964 61.7542 49.7727 61.4611 49.5407 61.2297C49.2779 61.0138 48.9995 60.8903 48.6748 60.8903Z" fill="white"/>
<path d="M35.9331 37.7496C35.9331 36.9319 36.0877 36.176 36.397 35.451C36.7063 34.7413 37.1238 34.1088 37.6495 33.5843C38.1752 33.0598 38.7938 32.6433 39.5205 32.3347C40.2318 32.0262 41.005 31.8719 41.8245 31.8719C42.644 31.8719 43.4017 32.0262 44.1285 32.3347C44.8398 32.6433 45.4583 33.0598 45.9686 33.5689C46.2778 33.0752 46.6335 32.6278 47.0355 32.2267C47.0819 32.1805 47.1437 32.1342 47.1901 32.0879C46.5252 31.4554 45.7521 30.9617 44.8707 30.5761C43.912 30.175 42.8914 29.959 41.809 29.959C40.7266 29.959 39.7061 30.1595 38.7474 30.5761C37.7887 30.9772 36.9691 31.5325 36.2733 32.2267C35.5775 32.9209 35.0208 33.754 34.6188 34.695C34.2167 35.6515 34.0002 36.6697 34.0002 37.7496V44.5837H35.9176V37.7496H35.9331Z" fill="white"/>
<path d="M47.7006 51.4179C47.7006 52.2355 47.5459 52.9914 47.2367 53.7165C47.2212 53.7474 47.2057 53.7628 47.1903 53.7936C46.881 54.4724 46.479 55.0741 45.9842 55.5677L45.9687 55.5831C45.443 56.0922 44.8399 56.5088 44.1286 56.8173C43.4019 57.1258 42.6442 57.2801 41.8246 57.2801C41.0051 57.2801 40.2474 57.1258 39.5207 56.8173C38.7939 56.5088 38.1754 56.0922 37.6497 55.5677C37.1239 55.0432 36.7064 54.4261 36.3972 53.7011C36.0879 52.9914 35.9333 52.2201 35.9333 51.4025V44.5684H34.0159V51.4025C34.0159 52.4823 34.2169 53.5005 34.6344 54.457C35.0364 55.4135 35.5931 56.2311 36.2889 56.9253C36.9848 57.6195 37.8197 58.1749 38.763 58.576C39.7217 58.9771 40.7268 59.193 41.8246 59.193C42.9071 59.193 43.9276 58.9925 44.8863 58.576C45.7677 58.2057 46.5408 57.6966 47.2058 57.0641C47.2521 57.0178 47.314 56.9716 47.3604 56.9253C47.7624 56.5242 48.1181 56.0614 48.4273 55.5831C48.5201 55.4443 48.582 55.2746 48.6747 55.1203C48.7984 54.9044 48.9221 54.6884 49.0304 54.457C49.4324 53.5005 49.6489 52.4978 49.6489 51.4025V44.5684H47.7315V51.4179H47.7006Z" fill="white"/>
<path d="M63.3178 37.7496C63.3178 36.6697 63.1168 35.6515 62.6993 34.695C62.2973 33.7386 61.7406 32.9209 61.0448 32.2267C60.349 31.5325 59.514 30.9772 58.5707 30.5761C57.612 30.175 56.5915 29.959 55.5091 29.959C54.4267 29.959 53.4061 30.1595 52.4474 30.5761C51.566 30.9463 50.7929 31.4554 50.128 32.0879C50.0816 32.1342 50.0197 32.1805 49.9733 32.2267C49.5713 32.6278 49.2156 33.0906 48.9064 33.5843C48.8136 33.7231 48.7518 33.8928 48.659 34.0471C48.5353 34.2631 48.4116 34.4791 48.3033 34.7105C47.9013 35.6669 47.6848 36.6851 47.6848 37.765V43.5809V44.5837H49.6022V43.5963V37.7496C49.6022 36.9319 49.7568 36.176 50.0661 35.451C50.0816 35.4201 50.097 35.4047 50.1125 35.3738C50.4218 34.695 50.8238 34.0934 51.3186 33.5843L51.3341 33.5689C51.8598 33.0598 52.4629 32.6433 53.1742 32.3347C53.8855 32.0262 54.6586 31.8719 55.4781 31.8719C56.2977 31.8719 57.0554 32.0262 57.7821 32.3347C58.4934 32.6433 59.1274 33.0598 59.6531 33.5843C60.1789 34.1088 60.5964 34.7259 60.9056 35.451C61.2149 36.176 61.3695 36.9319 61.3695 37.7496V44.5837H63.2869V37.7496H63.3178Z" fill="white"/>
<path d="M61.4003 44.584V51.4181C61.4003 52.2357 61.2457 52.9916 60.9364 53.7167C60.6272 54.4418 60.2097 55.0588 59.6839 55.5833C59.1582 56.1079 58.5397 56.5244 57.8129 56.8329C57.0862 57.1415 56.3285 57.2957 55.5089 57.2957C54.6894 57.2957 53.9317 57.1415 53.205 56.8329C52.4937 56.5244 51.8752 56.1079 51.3649 55.5988C51.0556 56.0924 50.7 56.5398 50.2979 56.9563C50.2516 57.0026 50.1897 57.0489 50.1433 57.0952C50.8082 57.7277 51.5814 58.2368 52.4627 58.607C53.4215 59.0081 54.4265 59.2241 55.5244 59.2241C56.6068 59.2241 57.6274 59.0235 58.5861 58.607C59.5448 58.2059 60.3643 57.6505 61.0601 56.9563C61.756 56.2621 62.3126 55.4291 62.7147 54.488C63.1167 53.5316 63.3332 52.5288 63.3332 51.4335V44.5994H61.4003V44.584Z" fill="white"/>
</g>
<defs>
<filter id="filter0_d_294_14" x="0" y="0" width="97.3333" height="100" filterUnits="userSpaceOnUse" color-interpolation-filters="sRGB">
<feFlood flood-opacity="0" result="BackgroundImageFix"/>
<feColorMatrix in="SourceAlpha" type="matrix" values="0 0 0 0 0 0 0 0 0 0 0 0 0 0 0 0 0 0 127 0" result="hardAlpha"/>
<feOffset dy="4"/>
<feGaussianBlur stdDeviation="5"/>
<feColorMatrix type="matrix" values="0 0 0 0 0 0 0 0 0 0 0 0 0 0 0 0 0 0 0.1 0"/>
<feBlend mode="normal" in2="BackgroundImageFix" result="effect1_dropShadow_294_14"/>
<feBlend mode="normal" in="SourceGraphic" in2="effect1_dropShadow_294_14" result="shape"/>
</filter>
<clipPath id="clip0_294_14">
<rect width="77.3333" height="80" fill="white" transform="translate(10 6)"/>
</clipPath>
</defs>
</svg>
