<svg width="98" height="19" viewBox="0 0 98 19" fill="none" xmlns="http://www.w3.org/2000/svg">
<path d="M7.296 18.336C3.96 18.336 1.632 16.752 0.696 14.184L3.528 12.528C4.176 14.232 5.472 15.096 7.392 15.096C9.24 15.096 10.08 14.352 10.08 13.32C10.08 12.72 9.816 12.264 9.288 11.952C8.76 11.616 7.824 11.256 6.456 10.872C4.944 10.416 4.032 10.056 2.976 9.312C1.944 8.544 1.392 7.392 1.392 5.856C1.392 4.344 1.92 3.12 3 2.232C4.08 1.32 5.4 0.863999 6.912 0.863999C9.624 0.863999 11.76 2.256 12.912 4.632L10.128 6.24C9.456 4.8 8.376 4.08 6.912 4.08C5.544 4.08 4.704 4.776 4.704 5.76C4.704 6.288 4.92 6.72 5.352 7.056C5.808 7.368 6.648 7.728 7.896 8.112L9.048 8.496C9.312 8.568 9.672 8.712 10.128 8.904C10.584 9.072 10.944 9.24 11.184 9.408C11.688 9.72 12.456 10.32 12.768 10.896C13.128 11.472 13.392 12.312 13.392 13.272C13.392 14.832 12.816 16.056 11.688 16.968C10.56 17.88 9.096 18.336 7.296 18.336ZM23.403 18.336C20.883 18.336 18.795 17.496 17.139 15.816C15.483 14.136 14.667 12.072 14.667 9.6C14.667 7.128 15.483 5.04 17.139 3.384C18.795 1.704 20.883 0.863999 23.403 0.863999C26.451 0.863999 29.187 2.4 30.627 4.824L27.771 6.48C26.931 4.968 25.323 4.08 23.403 4.08C21.771 4.08 20.451 4.584 19.443 5.616C18.459 6.648 17.955 7.968 17.955 9.6C17.955 11.208 18.459 12.528 19.443 13.56C20.451 14.592 21.771 15.096 23.403 15.096C25.323 15.096 26.979 14.184 27.771 12.72L30.627 14.376C29.187 16.8 26.475 18.336 23.403 18.336ZM32.6616 18V1.2H35.9736V18H32.6616ZM44.5616 18.336C41.2256 18.336 38.8976 16.752 37.9616 14.184L40.7936 12.528C41.4416 14.232 42.7376 15.096 44.6576 15.096C46.5056 15.096 47.3456 14.352 47.3456 13.32C47.3456 12.72 47.0816 12.264 46.5536 11.952C46.0256 11.616 45.0896 11.256 43.7216 10.872C42.2096 10.416 41.2976 10.056 40.2416 9.312C39.2096 8.544 38.6576 7.392 38.6576 5.856C38.6576 4.344 39.1856 3.12 40.2656 2.232C41.3456 1.32 42.6656 0.863999 44.1776 0.863999C46.8896 0.863999 49.0256 2.256 50.1776 4.632L47.3936 6.24C46.7216 4.8 45.6416 4.08 44.1776 4.08C42.8096 4.08 41.9696 4.776 41.9696 5.76C41.9696 6.288 42.1856 6.72 42.6176 7.056C43.0736 7.368 43.9136 7.728 45.1616 8.112L46.3136 8.496C46.5776 8.568 46.9376 8.712 47.3936 8.904C47.8496 9.072 48.2096 9.24 48.4496 9.408C48.9536 9.72 49.7216 10.32 50.0336 10.896C50.3936 11.472 50.6576 12.312 50.6576 13.272C50.6576 14.832 50.0816 16.056 48.9536 16.968C47.8256 17.88 46.3616 18.336 44.5616 18.336ZM58.0382 18.336C54.7022 18.336 52.3742 16.752 51.4382 14.184L54.2702 12.528C54.9182 14.232 56.2142 15.096 58.1342 15.096C59.9822 15.096 60.8222 14.352 60.8222 13.32C60.8222 12.72 60.5582 12.264 60.0302 11.952C59.5022 11.616 58.5662 11.256 57.1982 10.872C55.6862 10.416 54.7742 10.056 53.7182 9.312C52.6862 8.544 52.1342 7.392 52.1342 5.856C52.1342 4.344 52.6622 3.12 53.7422 2.232C54.8222 1.32 56.1422 0.863999 57.6542 0.863999C60.3662 0.863999 62.5022 2.256 63.6542 4.632L60.8702 6.24C60.1982 4.8 59.1182 4.08 57.6542 4.08C56.2862 4.08 55.4462 4.776 55.4462 5.76C55.4462 6.288 55.6622 6.72 56.0942 7.056C56.5502 7.368 57.3902 7.728 58.6382 8.112L59.7902 8.496C60.0542 8.568 60.4142 8.712 60.8702 8.904C61.3262 9.072 61.6862 9.24 61.9262 9.408C62.4302 9.72 63.1982 10.32 63.5102 10.896C63.8702 11.472 64.1342 12.312 64.1342 13.272C64.1342 14.832 63.5582 16.056 62.4302 16.968C61.3022 17.88 59.8382 18.336 58.0382 18.336ZM80.3132 15.816C78.6092 17.496 76.5452 18.336 74.1212 18.336C71.6972 18.336 69.6332 17.496 67.9292 15.816C66.2492 14.112 65.4092 12.048 65.4092 9.6C65.4092 7.152 66.2492 5.088 67.9292 3.408C69.6332 1.704 71.6972 0.863999 74.1212 0.863999C76.5452 0.863999 78.6092 1.704 80.3132 3.408C82.0172 5.088 82.8572 7.152 82.8572 9.6C82.8572 12.048 82.0172 14.112 80.3132 15.816ZM70.2572 13.56C71.2892 14.592 72.5852 15.096 74.1212 15.096C75.6572 15.096 76.9532 14.592 77.9852 13.56C79.0172 12.528 79.5452 11.208 79.5452 9.6C79.5452 7.992 79.0172 6.672 77.9852 5.64C76.9532 4.608 75.6572 4.08 74.1212 4.08C72.5852 4.08 71.2892 4.608 70.2572 5.64C69.2252 6.672 68.6972 7.992 68.6972 9.6C68.6972 11.208 69.2252 12.528 70.2572 13.56ZM97.977 18H94.401L91.017 12.168H88.497V18H85.185V1.2H91.905C93.465 1.2 94.785 1.752 95.865 2.832C96.945 3.912 97.497 5.232 97.497 6.768C97.497 8.856 96.201 10.776 94.257 11.664L97.977 18ZM91.905 4.296H88.497V9.264H91.905C93.153 9.264 94.185 8.136 94.185 6.768C94.185 5.4 93.153 4.296 91.905 4.296Z" fill="#141414"/>
</svg>
